<?xml version="1.0" standalone="no"?><!DOCTYPE svg PUBLIC "-//W3C//DTD SVG 1.1//EN" "http://www.w3.org/Graphics/SVG/1.1/DTD/svg11.dtd"><svg t="1748347492881" class="icon" viewBox="0 0 1024 1024" version="1.1" xmlns="http://www.w3.org/2000/svg" p-id="6745" xmlns:xlink="http://www.w3.org/1999/xlink" width="200" height="200"><path d="M524.198 428.168l0.226-1.766 39.4 5.026-0.225 1.766zM526.71 404.696l0.221-1.766 40.238 5.026-0.221 1.766zM530.492 382.917l0.243-1.764 36.465 5.028-0.243 1.763zM568.25 361.15h-34.1l-0.18-0.65c-11.84-42.86-8.83-83.14 10.08-134.67l0.21-0.58h31.52l-0.28 1.1c-10.63 42.56-18.9 88.21-7.5 133.65z m-32.74-1.78H566c-11-45.1-2.93-90.23 7.54-132.35h-28C527 277.64 524 317.3 535.51 359.37z" fill="" p-id="6746"></path><path d="M399.44 868.62c1-1.27 251.91 83.91 304.31-178.06 0 0 9.07-92.36-24.06-142 0 0 93.06 236.4-143.89 318.3 0 0-71.82 26.1-156.06-8z" fill="#917957" p-id="6747"></path><path d="M488.47 882.12c-27.17 0-56-3.79-85.66-11.44-1.16-0.3-2.22-0.57-2.84-0.71l-0.19 0.23-20.62-10.26 1-2.29c82.84 33.56 154.45 8.28 155.16 8 69-23.86 116.57-63.23 141.34-117 22.38-48.61 21.68-100.31 17.16-135.11-4.82-37.75-15.19-64.27-15.3-64.54l-4.3-10.93 6.52 9.77c33 49.46 24.35 141.91 24.26 142.83v0.12c-15 75-47.79 128.88-97.44 160.06-33.04 20.74-73.82 31.26-119.09 31.27z m-50.07-6.59c64.78 10.26 123.42 1.06 167.8-26.8 49-30.79 81.43-84.07 96.3-158.36 0.25-2.62 7.19-80.54-17.57-130.23a328.63 328.63 0 0 1 11.43 53.06c4.57 35.13 5.27 87.33-17.37 136.49-25.07 54.44-73.1 94.26-142.78 118.34-0.16 0.06-18.43 6.6-46.75 8.85a245.3 245.3 0 0 1-51.06-1.35z m-38.65-8.16c0.43 0.06 1.06 0.21 2 0.44L399 867z" fill="" p-id="6748"></path><path d="M513 447s-158.86-6.29-219.22 171.43c0 0-76.88 190.38 101.37 245.73q4 1.25 8.24 2.41c188.83 52 299.49-122.39 292.78-176 0 0 33.53-191.13-127.42-236.4z" fill="#A78F68" p-id="6749"></path><path d="M471.64 877.42a257.83 257.83 0 0 1-68.54-9.6c-2.78-0.77-5.57-1.58-8.28-2.42-50-15.53-84.76-43.18-103.26-82.18-18.32-38.63-17-81.5-12.75-110.66A265.59 265.59 0 0 1 292.65 618c13.8-40.65 34-75 60-102.16a225.48 225.48 0 0 1 72.93-50.88c47-20.52 87.13-19.19 87.53-19.18h0.11l55.93 7.16c37 10.4 66.73 29.39 88.45 56.46 17.37 21.64 29.65 48.44 36.5 79.66 11.28 51.38 3.95 98.16 3.4 101.52 3.39 28.34-23.83 85.57-73.88 128.88-28.13 24.34-59.68 41.3-93.76 50.39a225 225 0 0 1-58.22 7.57z m39.63-429.15c-8.1 0-43.81 1.1-84.81 19C383.61 486 326 527.55 295 618.87A263.18 263.18 0 0 0 281.28 673c-4.24 28.8-5.5 71.12 12.55 109.16C312 820.48 346.25 847.67 395.56 863c2.69 0.83 5.45 1.64 8.2 2.4C511.29 895 586.62 848.13 622 817.56c23-19.9 43.13-44.75 56.69-70 11.9-22.13 18-43.39 16.31-56.87v-0.38c0.08-0.48 8.21-48.22-3.36-100.81C681 541.15 651 478.62 568.53 455.39l-55.6-7.11c-0.17 0-0.73-0.02-1.66-0.02z" fill="" p-id="6750"></path><path d="M455.13 825.11a73 73 0 0 1-22.41-3.34c-25.24-8.11-43.47-30.7-54.2-67.14l-0.8-2.71 2.55 1.22c0.83 0.4 76.38 36.14 143.74 36.15a166.42 166.42 0 0 0 19.11-1.05l4.45-0.51-3.57 2.74a205.93 205.93 0 0 1-36.64 21.7c-14.09 6.48-33 12.94-52.23 12.94z m-73.39-68.53c10.56 34 28 55.15 51.75 62.79 41.64 13.38 91.46-18.47 105.28-28.18-64.37 5.47-142.06-27.86-157.02-34.61z" fill="" p-id="6751"></path><path d="M415.59 787.94a5.79 5.79 0 1 1 5.79-5.79 5.79 5.79 0 0 1-5.79 5.79z m0-9.79a4 4 0 1 0 4 4 4 4 0 0 0-4-4.01zM429.58 792.83a5.79 5.79 0 1 1 5.79-5.79 5.79 5.79 0 0 1-5.79 5.79z m0-9.79a4 4 0 1 0 4 4 4 4 0 0 0-4-4.04zM444.67 797.73a5.79 5.79 0 1 1 5.79-5.79 5.79 5.79 0 0 1-5.79 5.79z m0-9.8a4 4 0 1 0 4 4 4 4 0 0 0-4-3.99zM458.82 801.82a5.79 5.79 0 1 1 5.78-5.82 5.79 5.79 0 0 1-5.78 5.82z m0-9.79a4 4 0 1 0 4 4 4 4 0 0 0-4-4.03zM444.283 634.351l0.47-1.717 73.58 20.116-0.47 1.717zM451.201 616.012l0.444-1.724 71.685 18.445-0.444 1.724zM458.612 599.203l0.418-1.73 69.352 16.765-0.418 1.73zM466.04 584.148l0.412-1.732 66.971 15.93-0.412 1.732zM476.368 559.48l0.398-1.734 63.71 14.591-0.397 1.736zM492.358 510.389l0.335-1.748 61.194 11.74-0.335 1.748zM503.83 481.034l0.296-1.755 54.76 9.222-0.296 1.755zM510.775 459.2l0.277-1.757 47.788 7.543-0.277 1.758z" fill="" p-id="6752"></path><path d="M545.31 200.15c0.26-4.13 21.32 18.6 47.78 7.54 0 0-37.72 109-7.54 152.57l-16.77 93.89L513 447l13.83-86.76s-37.69-51.11 18.48-160.09z" fill="#A78F68" p-id="6753"></path><path d="M569.51 455.14L512 447.79l13.92-87.31c-1.48-2.15-9.56-14.89-11.79-39.33-2.21-24.19 1.26-64.86 30.31-121.27a1.32 1.32 0 0 1 0.67-1c1-0.55 2.47 0.29 5.65 2.12 7.64 4.4 23.53 13.55 42 5.84l1.83-0.77-0.65 1.88c-0.37 1.09-37.23 109.05-7.65 151.77l0.21 0.3z m-55.45-8.88l54 6.9 16.55-92.7c-12.47-18.32-15-49.6-7.48-93a439.38 439.38 0 0 1 14.52-58.27c-18.49 6.76-34.12-2.24-41.76-6.64a29.75 29.75 0 0 0-3.8-2C517.18 256.67 513.72 297 515.91 321c2.36 25.86 11.58 38.62 11.67 38.74l0.22 0.3z" fill="" p-id="6754"></path><path d="M439.77 226.13l86 14.72-2.34 11.59-83.7-7.54s-21.66-2 0.04-18.77z" fill="#A78F68" p-id="6755"></path><path d="M524.49 253.8l-84.83-7.65c-0.37 0-9.05-0.89-10.57-6.11-1.16-4 2.09-8.85 9.91-14.9l0.44-0.34 87.87 15z m-84.38-26.33c-6.33 5-9.38 9.18-8.6 11.87 0.87 3 6.34 4.12 8.38 4.31l82.58 7.44 1.86-9.21z" fill="" p-id="6756"></path><path d="M514 286.45l-103.31 6.75s-11.92 28.5 19.43 25.15L513 300.74z" fill="#A78F68" p-id="6757"></path><path d="M425.31 319.88c-7.2 0-12.32-2-15.28-6-5.93-8-0.72-20.67-0.49-21.2l0.3-0.72 105.46-6.86-1.08 16.67-84 17.82a46.75 46.75 0 0 1-4.91 0.29z m-13.73-25.48c-1 2.67-3.89 12.19 0.47 18 3 4 9 5.62 17.88 4.69l81.91-17.39 0.77-11.91z" fill="" p-id="6758"></path><path d="M584.71 242.38l-2.51 13.93 90.54 10.06s20.12-21.47-15.09-30.86z" fill="#A78F68" p-id="6759"></path><path d="M673.22 267.69l-92.5-10.28 2.92-16.19 74.11-7 0.22 0.06c12.15 3.24 19.29 8.3 21.22 15.06 2.59 9.06-5.21 17.52-5.54 17.87z m-89.55-12.48l88.54 9.79c1.48-1.78 6.45-8.41 4.55-15-1.67-5.8-8.14-10.26-19.23-13.25l-71.76 6.76z" fill="" p-id="6760"></path><path d="M574.65 292.48l0.84 13.3 103 12.85s24.46-12-7.4-25.42z" fill="#A78F68" p-id="6761"></path><path d="M678.67 319.92h-0.37l-104-13-1-15.68 98 0.73 0.23 0.1c11.21 4.72 17 9.93 17.13 15.49 0.21 7.29-9.26 12-9.67 12.23z m-102-15.26l101.54 12.67c1.54-0.84 8.09-4.7 7.94-9.73-0.13-4.38-5.44-8.93-15.37-13.14l-94.78-0.71z" fill="" p-id="6762"></path><path d="M550.22 153.37s-30.18 21.84 0 48.66c0 0 31 20.12 52.81 0l5-19.86s27.66-25.41-22.63-38.82c0.03 0-31.83-8.46-35.18 10.02z" fill="#FFFFFF" p-id="6763"></path><path d="M579.75 212.17c-15.94 0-30-8.94-30.21-9.08l-0.15-0.12c-9.62-8.55-14.26-17.54-13.8-26.71 0.65-13 11.24-21.85 13.5-23.61a13.71 13.71 0 0 1 6.24-9.05c10.48-6.66 29.62-1.68 30.43-1.47C603.92 147 614.26 154 616.47 163c2.4 9.75-5.62 18.22-7.28 19.85l-5 19.87-0.27 0.25a34.51 34.51 0 0 1-24.17 9.2zM551 201c1.69 1.06 30.64 18.66 50.93 0.33l5-19.86 0.28-0.25c0.09-0.08 9.08-8.5 6.82-17.67-2-8-11.71-14.42-28.92-19-0.18 0-18.89-4.91-28.44 1.16a11.2 11.2 0 0 0-5.21 7.87l-0.09 0.5-0.41 0.3c-0.12 0.09-12.22 9-12.87 22C537.68 184.75 542 193 551 201zM416.44 782.43l-1.69-0.56L525 448.45l14.41-88.92c-18.07-45.47 8.27-137.91 13-140.86a1.08 1.08 0 0 1 1.41 0.16l-1.31 1.2a0.69 0.69 0 0 0 0.88 0.12c-1.78 1.54-9.44 24.61-14.36 53.71-4.33 25.64-7.48 61.24 2.17 85.23l0.09 0.23v0.24l-14.5 89.37z" fill="" p-id="6764"></path><path d="M430.43 787.31l-1.7-0.53 104.69-336.92 14.38-89.46c-1.87-3.89-21.12-47.82 10.08-141.26l1.69 0.56c-32.32 96.8-10.28 139.71-10.06 140.13l0.14 0.26v0.3l-14.46 89.93z" fill="" p-id="6765"></path><path d="M445.52 792.2l-1.71-0.5 99.78-340.5 9.2-88.35c-1-4.09-16.87-73.62 13.5-143.77l1.63 0.71c-30.91 71.4-13.57 142.08-13.38 142.75v0.34l-9.23 88.67v0.08z" fill="" p-id="6766"></path><path d="M459.67 796.27l-1.67-0.47 94.85-343.08 5.86-92.51c0.37-6.56-0.44-13.49-1.37-21.52-2.78-23.88-6.58-56.59 14-119.53l1.69 0.55c-20.44 62.57-16.67 95.06-13.91 118.78 0.94 8.11 1.76 15.11 1.38 21.83L554.58 453v0.09z" fill="" p-id="6767"></path></svg>