<?xml version="1.0" standalone="no"?><!DOCTYPE svg PUBLIC "-//W3C//DTD SVG 1.1//EN" "http://www.w3.org/Graphics/SVG/1.1/DTD/svg11.dtd"><svg t="1748347464254" class="icon" viewBox="0 0 1024 1024" version="1.1" xmlns="http://www.w3.org/2000/svg" p-id="6405" xmlns:xlink="http://www.w3.org/1999/xlink" width="200" height="200"><path d="M452.088018 120.348508S40.538085 347.82931 294.063608 809.724009c0 0 201.43608 130.235011 451.483653-15.633675 0 0 229.202673-388.971759-180.591181-673.753229 0 0.011403-73.572918-26.249978-112.868062 0.011403z" fill="#A43F22" p-id="6406"></path><path d="M502.136303 863.808998a440.228775 440.228775 0 0 1-76.172829-6.636615c-80.791091-14.185479-131.683207-46.638753-132.184944-46.969443l-0.125434-0.079822-0.068419-0.125434c-57.882227-105.444633-85.523385-207.354298-82.330512-302.878219 2.599911-76.400891 24.893007-148.981737 66.286325-215.598752 70.129176-112.890869 172.28971-170.56784 174.273853-171.662539 39.089889-26.101737 112.617194-0.319287 113.358396 0l0.136838 0.068418c93.505568 64.997773 161.285702 140.931136 201.299243 225.6449 32.019955 67.780134 46.456303 141.296036 42.921336 218.517951-6.009443 131.466548-62.888196 229.373719-63.458352 230.342985l-0.079822 0.125434-0.125434 0.079822c-57.095412 33.308508-116.391626 54.860401-176.235189 64.051314a444.322494 444.322494 0 0 1-67.495056 5.12z m-207.639376-54.484098c2.805167 1.767483 53.024499 32.932205 131.69461 46.752784 74.336927 13.045167 189.998753 12.782895 318.945211-62.375056 2.360445-4.082316 57.346281-100.723742 63.23029-229.738619 5.519109-121.044098-32.282227-296.150379-243.67323-443.102361-2.656927-0.923653-74.211492-25.485969-112.286503 0-1.026281 0.570156-103.597327 58.155902-173.89755 171.320446-64.872339 104.395546-114.738174 278.874655 15.987172 517.142806z" fill="" p-id="6407"></path><path d="M451.221381 125.126414s66.411759 20.833497 106.7902-7.833942c0 0-85.956704-31.23314-106.7902 7.833942z" fill="#1F202B" p-id="6408"></path><path d="M501.965256 132.926147a192.496036 192.496036 0 0 1-50.926325-7.263786l-0.661381-0.205256 0.319287-0.604366c8.643563-16.203831 30.001604-22.726414 61.782094-18.860757a235.793675 235.793675 0 0 1 45.703697 10.775947l1.026281 0.376303-0.889444 0.627171c-16.454699 11.699599-37.368018 15.154744-56.354209 15.154744z m-49.911448-8.141826c7.012918 2.041158 67.118753 18.427439 104.714833-7.297996-9.795278-3.352517-85.044454-27.686771-104.714833 7.297996z" fill="" p-id="6409"></path><path d="M348.331047 492.477862m-16.933631 0a16.93363 16.93363 0 1 0 33.867261 0 16.93363 16.93363 0 1 0-33.867261 0Z" fill="#03080A" p-id="6410"></path><path d="M348.331047 509.970245a17.503786 17.503786 0 1 1 17.503786-17.515189 17.515189 17.515189 0 0 1-17.503786 17.515189z m0-33.855857a16.363474 16.363474 0 1 0 16.363474 16.340668 16.374878 16.374878 0 0 0-16.363474-16.340668z" fill="" p-id="6411"></path><path d="M637.137817 490.767394m-17.902895 0a17.902895 17.902895 0 1 0 35.805791 0 17.902895 17.902895 0 1 0-35.805791 0Z" fill="#111010" p-id="6412"></path><path d="M637.126414 509.240445a18.473051 18.473051 0 1 1 18.473051-18.473051 18.495857 18.495857 0 0 1-18.473051 18.473051z m0-35.817193a17.332739 17.332739 0 1 0 17.33274 17.332739 17.355546 17.355546 0 0 0-17.33274-17.332739z" fill="" p-id="6413"></path><path d="M656.831002 604.878396m-17.423964 0a17.423964 17.423964 0 1 0 34.847929 0 17.423964 17.423964 0 1 0-34.847929 0Z" fill="#111010" p-id="6414"></path><path d="M656.831002 622.872517a17.99412 17.99412 0 1 1 17.99412-17.994121 18.005523 18.005523 0 0 1-17.99412 17.994121z m0-34.836526a16.853808 16.853808 0 1 0 16.853809 16.853809 16.865212 16.865212 0 0 0-16.853809-16.853809z" fill="" p-id="6415"></path><path d="M328.797506 608.789666m-14.322317 0a14.322316 14.322316 0 1 0 28.644633 0 14.322316 14.322316 0 1 0-28.644633 0Z" fill="#111010" p-id="6416"></path><path d="M328.808909 623.682138a14.892472 14.892472 0 1 1 14.881069-14.915278 14.915278 14.915278 0 0 1-14.881069 14.915278z m0-28.59902a13.75216 13.75216 0 1 0 13.740757 13.683742 13.774967 13.774967 0 0 0-13.740757-13.683742z" fill="" p-id="6417"></path><path d="M373.075813 729.423252m-18.233586 0a18.233586 18.233586 0 1 0 36.467172 0 18.233586 18.233586 0 1 0-36.467172 0Z" fill="#111010" p-id="6418"></path><path d="M373.075813 748.21559a18.803742 18.803742 0 1 1 18.803742-18.803741 18.826548 18.826548 0 0 1-18.803742 18.803741z m0-36.489978a17.66343 17.66343 0 1 0 17.66343 17.66343 17.686236 17.686236 0 0 0-17.66343-17.640623z" fill="" p-id="6419"></path><path d="M645.268241 716.720178m-18.552874 0a18.552873 18.552873 0 1 0 37.105747 0 18.552873 18.552873 0 1 0-37.105747 0Z" fill="#111010" p-id="6420"></path><path d="M645.268241 735.843207a19.123029 19.123029 0 1 1 19.134432-19.123029 19.145835 19.145835 0 0 1-19.134432 19.123029z m0-37.117149a17.982717 17.982717 0 1 0 17.99412 17.99412 18.005523 18.005523 0 0 0-17.99412-17.99412z" fill="" p-id="6421"></path><path d="M692.80784 767.840356m-12.372383 0a12.372383 12.372383 0 1 0 24.744766 0 12.372383 12.372383 0 1 0-24.744766 0Z" fill="#111010" p-id="6422"></path><path d="M692.80784 780.782895a12.942539 12.942539 0 1 1 12.942539-12.942539 12.953942 12.953942 0 0 1-12.942539 12.942539z m0-24.744766a11.802227 11.802227 0 1 0 11.802227 11.802227 11.81363 11.81363 0 0 0-11.802227-11.802227z" fill="" p-id="6423"></path><path d="M419.965434 515.842851h0.980668l12.703074 7.811136-1.949933 7.811135v3.91127l2.930601 8.791804 5.861203-1.949933H449.282851a34.711091 34.711091 0 0 1 8.791804 11.722405 108.819955 108.819955 0 0 1-28.325345 10.741737l-6.841871 23.444811-1.949933 9.772472-3.91127 15.633675h2.930601q31.244543-24.402673 58.600624-59.581292v2.930602l-38.10922 50.743875-33.20588 49.843029-3.91127-1.949933-8.791804 1.949933q-9.772472 0-9.772472-18.564276 3.888463-9.749666 7.811136-27.367484 3.888463 0 9.772472-41.997683h-2.930601v-0.980669c-6.51118 0-9.772472 2.280624-9.772472 6.841871h-2.930602l-4.880534-5.861202q1.949933-5.861203 25.394744-15.633675l5.861202-28.325345v-5.861203c0.011403-2.565702 2.280624-3.87706 6.853274-3.87706z m151.399199-49.820223h2.930601l2.930601 2.930601-38.097817 53.720089 21.483474-16.602939q10.741737 0.980668 10.741737 3.911269 0 7.822539-26.375412 27.367483a134.556793 134.556793 0 0 0-18.564276 22.464143h0.980668q24.402673-15.610869 35.167216-15.633675h6.841871l6.841871 4.880535-1.949933 12.69167v4.823519l-0.980668 1.949933 0.980668 0.980668q-3.911269 18.564276-3.91127 46.889622a109.469933 109.469933 0 0 0 3.91127 28.325345l-2.930601 9.772472q36.125078 9.749666 37.117149 15.633675a13.227617 13.227617 0 0 1-7.822539 12.760089q-11.722405 0-54.734967-25.394744-8.791804-10.741737-17.583608-11.722405h-0.980668q-2.930601 1.972739-16.60294 27.367483l-21.483474 21.483474-8.791804 0.980669h-3.91127q-18.564276-5.861203-18.552873-9.772473v-12.725879q14.653007-14.653007 29.306014-21.483475v-0.980668c-2.611314-3.911269-3.911269-7.480445-3.91127-10.741737a279.376392 279.376392 0 0 1 19.579154-66.480178h-1.995546l-3.911269 1.949933-2.930602-9.715457q1.949933-27.367483 6.841871-59.581291l-0.980668-5.861203 0.980668-5.861203a48.223786 48.223786 0 0 1 5.861203-23.44481l3.911269-1.949934h0.980668c1.299955 0 2.280624 4.24196 2.930602 12.703074l-0.980668 6.841871h0.980668q9.783875-8.803207 56.6849-22.475546z m-64.47323 146.518664v0.980668h0.946459q0-4.880535 23.444811-24.414076l0.980668-0.980668h5.861202l0.980669 6.841871q0 4.903341-6.841871 28.325345l-0.980668 5.861203q4.903341 12.680267 19.56775 12.680267h3.91127l1.949933-2.930601-1.949933-28.325346 1.949933-45.908953v-4.880534l-3.91127-1.949933q-19.544944 6.841871-28.325345 19.533541-9.795278 12.703073-17.583608 35.167216z m0.980668-89.85657l1.949933 0.980668v1.949933l-1.984142 8.780401h1.949933q28.313942-26.375412 41.997684-47.893096v-0.889443h-0.980668q-40.059154 11.722405-40.047751 28.325345 0.045612 8.734788-2.919198 8.734788z m0 38.097817v2.930601l5.861203-6.841871v-1.949933z" fill="#C5AD69" p-id="6424"></path></svg>