<?xml version="1.0" standalone="no"?><!DOCTYPE svg PUBLIC "-//W3C//DTD SVG 1.1//EN" "http://www.w3.org/Graphics/SVG/1.1/DTD/svg11.dtd"><svg t="1748347480544" class="icon" viewBox="0 0 1024 1024" version="1.1" xmlns="http://www.w3.org/2000/svg" p-id="6570" xmlns:xlink="http://www.w3.org/1999/xlink" width="200" height="200"><path d="M147 534.86c11.14 13.69 9.38 21.39 6.89 32.36L873.2 386.61c6.57-18.44 1.23-28.67-11.81-32.91z" fill="#BC4B05" p-id="6571"></path><path d="M153.25 567.91l0.18-0.79c2.52-11.12 4.18-18.45-6.79-31.93l-0.49-0.61 0.76-0.19 714.51-181.2h0.14c6.33 2.05 10.71 5.47 13 10.16 2.87 5.82 2.57 13.69-0.89 23.39l-0.09 0.25-0.26 0.06z m-5.34-32.75c10.48 13.17 9 21 6.68 31.38l718.23-180.35c3.28-9.32 3.56-16.84 0.84-22.36-2.17-4.4-6.3-7.64-12.29-9.61z" fill="" p-id="6572"></path><path d="M178.32 560.4l-6.32-32 8.85-1.72 6.32 32z m-5.14-31.21l5.93 30 6.89-1.34-5.93-30zM210 551.79l-6.51-32.18 8.23-1.67 6.06 32.17z m-5.33-31.4l6.11 30.21 5.84-1.26-5.69-30.22zM322.67 523.56l-7.58-31.39 11.35-3.17 7.56 31.35z m-6.38-30.69l7.11 29.45 9.42-2.67-7.11-29.45zM739.76 420.11v-36.85l22.24-5.55v36.86z m1-36.07v34.79l20.28-5V379z" fill="" p-id="6573"></path><path d="M372.54 478.27c0-6.1 9 28.13 23.65-5.9z" fill="#020202" p-id="6574"></path><path d="M383.28 488.17c-4.58 0-7.83-5.5-9.6-8.49-0.21-0.35-0.43-0.72-0.62-1l-1 0.25v-0.64c0-0.38 0-1.08 0.54-1.23 0.32-0.09 0.59 0.06 0.91 0.47l23.49-5.89-0.4 0.93c-4.39 10.21-8.64 15.31-13 15.59z m-9.2-9.77l0.46 0.77c1.71 2.89 4.9 8.26 9 8 3.77-0.24 7.72-5 11.75-14.06z" fill="" p-id="6575"></path><path d="M414.6 467.78c0-4.41 8.53 29.85 26-6.47z" fill="#020202" p-id="6576"></path><path d="M425.36 478.69c-5.27 0-8.57-6.44-10.16-9.55-0.15-0.3-0.32-0.62-0.46-0.88l-0.64 0.16v-0.64c0-0.23 0-0.77 0.47-0.88a0.56 0.56 0 0 1 0.61 0.22l26.28-6.55-0.46 1c-5.44 11.33-10.68 17.1-15.57 17.17zM415.73 468l0.35 0.67c1.5 2.93 4.62 9 9.28 9h0.07c4.35-0.06 9.13-5.32 14.21-15.64z" fill="" p-id="6577"></path><path d="M453.3 458.13c0.14-4.11 9.75 32.68 25-6.24z" fill="#020202" p-id="6578"></path><path d="M464.43 470.44c-5.13 0-8.67-7.11-10.38-10.56-0.23-0.46-0.46-0.93-0.64-1.26l-0.63 0.16v-0.66c0-0.17 0-0.7 0.49-0.8a0.53 0.53 0 0 1 0.55 0.16l25.3-6.31-0.35 0.9c-4.76 12.14-9.38 18.15-14.11 18.35z m-10-12.07c0.15 0.28 0.32 0.64 0.54 1.06 1.62 3.26 5 10 9.49 10h0.2c4.12-0.18 8.44-5.84 12.86-16.82z" fill="" p-id="6579"></path><path d="M582.25 424.52c1.62-3.8 13 28.58 24.66-6.15z" fill="#020202" p-id="6580"></path><path d="M594.94 435.1c-4.21 0-7.72-4.66-10.1-7.82a21.18 21.18 0 0 0-2-2.4l-1.48 0.37 0.39-0.92a0.91 0.91 0 0 1 0.73-0.61 1 1 0 0 1 0.53 0.09l24.62-6.14-0.29 0.87c-3.51 10.42-7.28 15.82-11.53 16.5a5.72 5.72 0 0 1-0.87 0.06zM584 424.59c0.44 0.49 1 1.18 1.65 2.08 2.4 3.19 6 8 10 7.36 3.68-0.59 7.19-5.63 10.44-15z" fill="" p-id="6581"></path><path d="M622.23 414.55c-0.48-2.91 16.09 29.22 28.88-7.2z" fill="#020202" p-id="6582"></path><path d="M636.49 425.37c-6.09 0-11.21-6.52-13.48-9.42-0.26-0.33-0.53-0.67-0.72-0.9l-0.46 0.11-0.09-0.53a0.6 0.6 0 0 1 0.31-0.73 0.49 0.49 0 0 1 0.53 0l29.31-7.31-0.31 0.88c-3.83 10.9-8.44 16.87-13.72 17.74a8.44 8.44 0 0 1-1.37 0.16z m-13.13-10.59l0.43 0.55c2.33 3 7.79 9.95 13.91 8.94 4.75-0.78 9-6.24 12.62-16.21z" fill="" p-id="6583"></path><path d="M667.33 403.3c-0.76-2.66 15.65 31.54 29.77-7.42z" fill="#020202" p-id="6584"></path><path d="M681.53 415.15c-6.77 0-12.18-8.12-14-10.87l-0.29-0.44-0.25 0.06-0.13-0.46c-0.14-0.48 0.1-0.67 0.25-0.74a0.42 0.42 0 0 1 0.49 0l30.3-7.55-0.32 0.88c-4.33 12-9.38 18.36-15 19a8.43 8.43 0 0 1-1.05 0.12z m-13.28-11.57l0.09 0.14c1.84 2.76 7.43 11.17 14.07 10.37 5.09-0.61 9.76-6.5 13.87-17.5zM803 491.91c-6-8.56 10-30.8 10.72-31.75 21.24-22.69 9.88-60.37 9.77-60.75l1-0.3c0.12 0.38 11.64 38.61-10 61.68-0.12 0.18-16.3 22.56-10.67 30.53zM828.24 496.23c-2.68-19.61 12.86-49.19 13-49.49 13.51-22.4 4-51.11 3.9-51.4l0.95-0.32c0.1 0.29 9.76 29.44-4 52.21-0.14 0.27-15.54 29.57-12.9 48.86z" fill="" p-id="6585"></path><path d="M799.26 505.97m-13.78 0a13.78 13.78 0 1 0 27.56 0 13.78 13.78 0 1 0-27.56 0Z" fill="#FFE000" p-id="6586"></path><path d="M799.26 520.24A14.28 14.28 0 1 1 813.54 506a14.29 14.29 0 0 1-14.28 14.24z m0-27.55A13.28 13.28 0 1 0 812.54 506a13.29 13.29 0 0 0-13.28-13.31z" fill="" p-id="6587"></path><path d="M826.91 510.15m-13.78 0a13.78 13.78 0 1 0 27.56 0 13.78 13.78 0 1 0-27.56 0Z" fill="#FFE000" p-id="6588"></path><path d="M826.91 524.43a14.28 14.28 0 1 1 14.28-14.28 14.29 14.29 0 0 1-14.28 14.28z m0-27.55a13.28 13.28 0 1 0 13.28 13.28 13.29 13.29 0 0 0-13.28-13.28z" fill="" p-id="6589"></path><path d="M808.45 518.35l-17.59-0.55s-23.95 64.2 0.65 122.2l21.49 6.93 6-9.84c6.32-1.89-24.87-54.19-10.55-118.74z" fill="#FFE000" p-id="6590"></path><path d="M813.26 647.52l-22.12-7.08-0.09-0.21c-24.4-57.57-0.91-122-0.67-122.61l0.13-0.34 18.55 0.58-0.13 0.59c-9.86 44.44 1.83 82.77 8.12 103.37 2.51 8.22 4 13.18 3.05 15a1.49 1.49 0 0 1-0.7 0.68z m-21.38-7.89l20.93 6.7 5.92-9.67 0.18-0.05a0.49 0.49 0 0 0 0.3-0.26c0.77-1.44-0.87-6.8-3.13-14.23-6.28-20.59-17.94-58.85-8.26-103.29l-16.63-0.52c-1.79 5.1-22.49 66.32 0.69 121.32z" fill="" p-id="6591"></path><path d="M837.63 519.74s-19.43 6.31-23.05-1.39c0 0-24 94.14 4.49 118.74h21.62l16.75-6.4 14.76-5.41 21.65-15.74s-57.23-17.04-56.22-89.8z" fill="#FFE000" p-id="6592"></path><path d="M840.78 637.59h-21.9l-0.14-0.12c-28.44-24.52-5.64-115.38-4.65-119.24l0.34-1.35 0.59 1.26c3.39 7.21 22.26 1.19 22.45 1.13l0.66-0.21v0.7c-0.52 37.38 14.69 59.67 27.54 71.78C879.6 604.66 893.85 609 894 609.06l1 0.29-22.59 16.4-14.76 5.41z m-21.53-1h21.35l16.66-6.36 14.7-5.39 20.81-15.13A82.77 82.77 0 0 1 865 592.29c-12.93-12.18-28.23-34.51-27.9-71.87-3.34 1-17.9 5-22.35-0.79-2.58 10.84-21.57 94.13 4.5 116.96zM808.3 645.93c-15.75-4.48-13.46-58.71-13.35-61h1c0 0.56-2.37 55.75 12.63 60z" fill="" p-id="6593"></path><path d="M819.07 578.41s8.81 55.72 21.62 58.67" fill="#FFE000" p-id="6594"></path><path d="M840.58 637.57c-13-3-21.64-56.79-22-59.08l1-0.16c0.09 0.55 8.9 55.42 21.24 58.26z" fill="" p-id="6595"></path><path d="M838 578.41s1.75 40 19.46 52.28" fill="#FFE000" p-id="6596"></path><path d="M857.16 631.1c-17.71-12.3-19.61-51-19.68-52.67h1c0 0.4 1.95 39.87 19.25 51.89zM872 625.71c-15.74-8.85-23.14-34.48-23.21-34.74l1-0.27c0.07 0.25 7.36 25.49 22.74 34.14z" fill="" p-id="6597"></path><path d="M153.68 566.22c0 6.76-19.12-14-7.66-31.36 0.72 0.42 14.38 10.14 7.66 31.36z" fill="#BC4B05" p-id="6598"></path><path d="M152.8 568c-1.43 0-3.43-1.91-4.93-3.84-4.37-5.65-9.76-18.23-2.26-29.6l0.26-0.4 0.41 0.24c0.15 0.09 14.82 9.93 7.9 31.87 0 1.11-0.52 1.52-0.94 1.66a1.39 1.39 0 0 1-0.44 0.07z m-6.64-32.46c-6.77 10.78-1.65 22.64 2.5 28 2.07 2.67 3.74 3.61 4.26 3.44 0.24-0.08 0.26-0.58 0.26-0.79v-0.15c6.12-19.2-4.78-28.75-7.02-30.46z" fill="" p-id="6599"></path></svg>